<?xml version="1.0" encoding="iso-8859-1"?>
<!-- Generator: Adobe Illustrator 18.0.0, SVG Export Plug-In . SVG Version: 6.00 Build 0)  -->
<!DOCTYPE svg PUBLIC "-//W3C//DTD SVG 1.1//EN" "http://www.w3.org/Graphics/SVG/1.1/DTD/svg11.dtd">
<svg version="1.1" id="Capa_1" xmlns="http://www.w3.org/2000/svg" xmlns:xlink="http://www.w3.org/1999/xlink" x="0px" y="0px"
	 viewBox="0 0 470.75 470.75" style="enable-background:new 0 0 470.75 470.75;" xml:space="preserve">
<g>
	<path d="M417.176,276.047c-6.675-3.856-15.53,3.422-20.829,12.6h0c-5.298,9.178-7.17,20.484-0.497,24.339
		c1.253,0.724,2.582,1.055,3.951,1.055c5.922,0,12.574-6.2,16.878-13.654C421.977,291.208,423.85,279.901,417.176,276.047z
		 M409.751,296.385c-3.988,6.907-8.566,9.631-9.881,9.637c-0.652-1.143-0.583-6.469,3.405-13.376h0
		c3.988-6.907,8.566-9.631,9.881-9.637C413.808,284.152,413.738,289.478,409.751,296.385z"/>
	<path d="M197.634,400.74c-1.877-1.084-5.881-2.28-11.625,1.884c-3.347,2.426-6.616,6.231-9.205,10.716
		c-2.589,4.483-4.25,9.218-4.677,13.329c-0.733,7.056,2.304,9.926,4.18,11.009c1.253,0.724,2.582,1.055,3.951,1.055
		c5.922,0,12.574-6.2,16.878-13.654C202.435,415.899,204.307,404.592,197.634,400.74z M190.208,421.078
		c-3.988,6.907-8.566,9.631-9.881,9.637c-0.652-1.143-0.582-6.469,3.405-13.375c3.989-6.908,8.566-9.631,9.881-9.637
		C194.266,408.844,194.196,414.171,190.208,421.078z"/>
	<path d="M470.75,87.093c0-1.428-0.761-2.748-1.998-3.463L346.179,12.797c-1.235-0.715-2.757-0.718-3.993-0.006
		c0,0-289.469,165.986-289.859,166.381c-0.928,0.939-1.36,2.595-1.975,4.966c0,0-16.855,65.285-16.855,65.624
		c0,1.429,0.763,2.75,2,3.464l18.132,10.467l-14.632,24.894L1.171,326.411C0.421,327.161,0,328.178,0,329.239v53.706
		c0,1.429,0.762,2.749,1.999,3.464l122.631,70.845c0.619,0.357,1.31,0.536,2.001,0.536c0.69,0,1.381-0.179,2-0.535
		c0.242-0.14,27.136-15.574,27.136-15.574c1.634,6.337,5.085,11.233,10.079,14.116c3.164,1.827,6.667,2.695,10.332,2.695
		c12.121,0,25.998-9.501,35.092-25.254c5.429-9.403,8.068-19.162,8.032-27.738l155.889-88.804c1.58,6.3,4.993,11.404,10.197,14.408
		c3.164,1.827,6.667,2.695,10.332,2.695c12.121,0,25.998-9.501,35.092-25.254c5.281-9.147,8.087-19.073,7.97-28.079l29.947-17.056
		c1.249-0.711,2.021-2.038,2.021-3.476L470.75,87.093L470.75,87.093z M344.171,20.876l114.565,66.206l-42.088,24.163L302.075,45.046
		L344.171,20.876z M365.598,140.553l-21.214-12.257l43.192-24.609l21.051,12.163L365.598,140.553z M251.027,74.356l43.027-24.705
		l18.768,10.844l-43.192,24.609L251.027,74.356z M320.846,65.131l23.767,13.732l-43.192,24.609L277.654,89.74L320.846,65.131z
		 M352.636,83.499l26.916,15.552l-43.192,24.609l-26.917-15.552L352.636,83.499z M243.006,78.961l114.57,66.197l-179.967,103.32
		L63.048,182.287L243.006,78.961z M57.528,188.338l115.442,66.7l-15.396,59.418L42.118,247.81
		C44.816,237.393,54.07,201.681,57.528,188.338z M158.128,324.012c1.233,0.712,2.752,0.715,3.988,0.007l30.633-17.551l-29.369,49.98
		L47.681,289.599l12.877-21.907L158.128,324.012z M258.389,268.859v34.972l-82.764,47.568l31.104-52.941L258.389,268.859z
		 M42.849,296.047l115.455,66.708l-32.635,32.644L10.208,328.688L42.849,296.047z M8,336.652l20.895,12.073v25.285L8,361.937
		V336.652z M36.895,353.347l56.557,32.677v25.286l-56.557-32.678V353.347z M101.451,390.647l21.18,12.237v25.286l-21.18-12.237
		V390.647z M8,380.636v-9.459l114.631,66.233v9.449L8,380.636z M204.343,429.238c-9.283,16.077-25.082,25.063-34.497,19.631
		c-4.332-2.501-6.866-7.791-7.135-14.896c-0.295-7.786,2.151-16.591,6.887-24.795c7.441-12.888,19.067-21.221,28.238-21.221
		c2.27,0,4.39,0.512,6.259,1.59C213.511,394.985,213.625,413.161,204.343,429.238z M348.21,252.933l-43.992,25.065v-51.997
		l43.992-25.399V252.933z M304.218,287.205l43.992-25.065v60.719l-43.992,25.061V287.205z M423.885,304.546
		c-9.283,16.077-25.08,25.063-34.497,19.631c-9.417-5.438-9.53-23.613-0.248-39.69c7.441-12.888,19.067-21.22,28.238-21.22
		c2.27,0,4.391,0.511,6.259,1.589c4.332,2.501,6.866,7.791,7.135,14.896C431.067,287.537,428.622,296.341,423.885,304.546z
		 M437.675,271.892c-1.65-6.263-5.084-11.104-10.038-13.964c-13.626-7.87-33.58,2.043-45.424,22.559
		c-5.395,9.344-8.034,19.041-8.031,27.579l-17.971,10.237V193.674c0-1.429-0.762-2.75-2-3.464c-1.237-0.715-2.763-0.715-4,0
		l-51.992,30.018c-1.238,0.714-2,2.035-2,3.464v128.786l-77.959,44.41c-1.595-6.235-4.999-11.285-10.164-14.268
		c-13.625-7.869-33.58,2.042-45.424,22.559c-5.247,9.088-8.052,18.945-7.973,27.905l-24.066,13.711v-45.043l36.443-36.454
		l97.308-55.685c1.242-0.713,2.007-2.036,2.007-3.468v-44.188c0-1.427-0.76-2.745-1.994-3.461s-2.756-0.72-3.995-0.01
		l-94.017,53.867l14.673-56.631L462.75,94.002V257.61L437.675,271.892z"/>
	<path d="M451.778,134.498c-1.237-0.715-2.763-0.715-4,0l-51.992,30.018c-1.238,0.714-2,2.035-2,3.464v39.73
		c0,1.429,0.762,2.75,2,3.464c0.619,0.357,1.31,0.536,2,0.536s1.381-0.179,2-0.536l51.992-30.018c1.238-0.714,2-2.035,2-3.464
		v-39.73C453.778,136.533,453.016,135.212,451.778,134.498z M445.778,175.383l-43.992,25.399v-30.493l43.992-25.399V175.383z"/>
	<path d="M256.191,222.519c-1.237-0.715-2.763-0.715-4,0l-29.009,16.748c-1.238,0.714-2,2.035-2,3.464v22.167
		c0,1.429,0.762,2.75,2,3.464c0.619,0.357,1.309,0.536,2,0.536c0.69,0,1.381-0.179,2-0.536l29.009-16.748
		c1.238-0.714,2-2.035,2-3.464v-22.167C258.191,224.554,257.429,223.233,256.191,222.519z M250.191,245.841l-21.009,12.13v-12.93
		l21.009-12.13V245.841z"/>
	<path d="M153.611,260.273l-85.405-49.157c-0.607-0.35-1.295-0.533-1.996-0.533c-3.096,0-3.798,2.712-4.136,4.016l-5.883,22.706
		c-0.085,0.327-0.128,0.687-0.128,1.025c0,1.432,0.765,2.754,2.005,3.467l85.405,49.134c0.615,0.354,1.304,0.533,1.995,0.533
		c0.525,0,1.052-0.104,1.549-0.313c1.151-0.482,2.01-1.476,2.323-2.685l6.147-23.724
		C155.939,263.001,155.171,261.172,153.611,260.273z M142.913,281.379L64.694,236.38c1.016-3.918,2.831-10.925,4.071-15.711
		l78.213,45.018L142.913,281.379z"/>
	<path d="M217.279,186.368c0-1.429-0.762-2.749-2-3.464l-46.703-26.97c-1.239-0.715-2.765-0.716-4.003,0.001l-55.28,31.973
		c-1.24,0.718-2.002,2.043-1.998,3.476s0.774,2.753,2.019,3.462l46.954,26.769c0.623,0.355,1.304,0.525,1.976,0.525
		c0.756,0,1.502-0.215,2.145-0.622l54.889-31.686C216.516,189.118,217.279,187.798,217.279,186.368z M158.233,213.525l-38.904-22.18
		l47.249-27.327l38.701,22.349L158.233,213.525z"/>
</g>
<g>
</g>
<g>
</g>
<g>
</g>
<g>
</g>
<g>
</g>
<g>
</g>
<g>
</g>
<g>
</g>
<g>
</g>
<g>
</g>
<g>
</g>
<g>
</g>
<g>
</g>
<g>
</g>
<g>
</g>
</svg>
